<?xml version="1.0" standalone="no"?>
<!DOCTYPE svg PUBLIC "-//W3C//DTD SVG 20010904//EN"
 "http://www.w3.org/TR/2001/REC-SVG-20010904/DTD/svg10.dtd">
<svg version="1.0" xmlns="http://www.w3.org/2000/svg"
 width="200.000000pt" height="200.000000pt" viewBox="0 0 200.000000 200.000000"
 preserveAspectRatio="xMidYMid meet">
<metadata>
Created by potrace 1.14, written by Peter Selinger 2001-2017
</metadata>
<g transform="translate(0.000000,200.000000) scale(0.100000,-0.100000)"
fill="#000000" stroke="none">
<path d="M1395 1970 c-11 -4 -33 -22 -49 -38 -50 -53 -46 -157 8 -201 8 -7 36
-20 62 -29 l47 -17 67 -239 67 -238 -36 -34 c-20 -18 -43 -33 -51 -33 -8 0
-129 37 -268 82 l-253 82 -4 61 c-7 147 -119 254 -265 254 -137 0 -244 -94
-265 -232 -14 -96 45 -214 130 -259 25 -13 45 -31 45 -39 0 -8 -14 -83 -32
-167 -27 -133 -34 -152 -49 -148 -9 3 -45 1 -80 -4 -210 -34 -355 -231 -319
-433 23 -126 104 -233 218 -286 49 -23 70 -27 152 -27 86 0 101 3 160 31 130
62 210 181 217 323 3 51 -1 93 -11 126 -8 27 -12 53 -8 56 4 4 154 90 335 193
l327 186 41 -27 c57 -38 130 -38 186 -1 126 83 82 285 -65 305 -48 6 -34 -28
-127 303 l-52 185 33 38 c60 66 45 172 -29 217 -33 21 -96 25 -132 10z m-150
-813 l260 -83 3 -40 3 -39 -337 -191 -336 -191 -39 42 c-21 23 -67 57 -101 75
-35 18 -64 34 -65 35 -2 1 12 73 30 161 l34 159 52 7 c82 12 153 56 196 121 9
15 22 27 29 27 6 0 128 -38 271 -83z"/>
</g>
</svg>
